<mxfile host="app.diagrams.net" modified="2024-04-26T04:10:42.459Z" agent="Mozilla/5.0 (Windows NT 10.0; Win64; x64) AppleWebKit/537.36 (KHTML, like Gecko) Chrome/124.0.0.0 Safari/537.36 Edg/124.0.0.0" version="24.3.0" etag="GMiCCMLa8X3plRf4uZOP" type="github">
  <diagram name="Page-1" id="9Bk8yEt1bR16Bn5ANED8">
    <mxGraphModel>
      <root>
        <mxCell id="0" />
        <mxCell id="1" parent="0" />
      </root>
    </mxGraphModel>
  </diagram>
</mxfile>
